<svg width="304" height="208" viewBox="0 0 304 208" fill="none" xmlns="http://www.w3.org/2000/svg">
<g clip-path="url(#clip0_144_193)">
<path d="M48.4709 208C21.7011 208 7.62939e-06 206.347 7.62939e-06 204.308C7.62939e-06 202.269 21.7011 200.615 48.4709 200.615C75.2406 200.615 96.9418 202.269 96.9418 204.308C96.9418 206.347 75.2406 208 48.4709 208Z" fill="#E6E6E6"/>
<path d="M254.629 57.287C254.614 53.529 257.778 50.4551 261.492 50.4551H295.955C299.61 50.4551 302.768 53.4782 302.811 57.1765C302.824 58.2277 302.596 59.2675 302.145 60.2142C301.693 61.1609 301.03 61.9885 300.209 62.6318C299.998 62.7906 299.832 63.0025 299.728 63.2465C299.624 63.4904 299.584 63.7577 299.614 64.0218C299.654 64.3215 299.674 64.6235 299.674 64.9259V89.0467C299.674 89.9346 299.501 90.8137 299.166 91.634C298.83 92.4543 298.338 93.1996 297.717 93.8274C297.097 94.4552 296.36 94.9532 295.55 95.293C294.739 95.6328 293.87 95.8076 292.993 95.8076H264.672C262.9 95.8076 261.201 95.0953 259.948 93.8274C258.695 92.5595 257.991 90.8398 257.991 89.0467V64.9259C257.991 64.6613 258.006 64.3969 258.036 64.1341C258.063 63.8739 258.021 63.6111 257.914 63.373C257.807 63.1349 257.638 62.9302 257.427 62.78C256.564 62.1535 255.861 61.3289 255.375 60.3741C254.889 59.4192 254.633 58.3612 254.629 57.287Z" fill="#3F3D56"/>
<path d="M256.122 56.6252C256.294 55.3168 256.932 54.1171 257.918 53.2521C258.903 52.3872 260.167 51.9165 261.471 51.929H295.965C297.185 51.9179 298.371 52.328 299.329 53.0916C300.287 53.8551 300.959 54.9264 301.234 56.1286C301.469 57.2334 301.352 58.3854 300.899 59.4185C300.446 60.4515 299.68 61.3124 298.713 61.8771C298.433 62.0387 298.215 62.2897 298.092 62.5906C297.969 62.8915 297.949 63.2252 298.034 63.5392C298.156 63.9914 298.218 64.4582 298.218 64.927V89.0455C298.217 90.2781 297.792 91.4719 297.014 92.4208C296.237 93.3698 295.157 94.0142 293.96 94.2429C293.64 94.3031 293.316 94.3335 292.991 94.3336H264.671C264.193 94.3344 263.717 94.268 263.257 94.1363C262.161 93.8242 261.195 93.1581 260.508 92.2395C259.82 91.3209 259.448 90.2002 259.448 89.0478V64.9247C259.447 64.4857 259.502 64.0485 259.609 63.6231C259.638 63.5052 259.653 63.3841 259.654 63.2626C259.653 62.9959 259.582 62.7344 259.446 62.5059C259.31 62.2775 259.115 62.0906 258.883 61.9655L258.881 61.9632C257.942 61.4591 257.176 60.6794 256.684 59.7267C256.191 58.7739 255.996 57.6927 256.122 56.6252Z" fill="#6C63FF"/>
<path opacity="0.2" d="M259.448 67.2354V64.9678H263.257V51.929H265.498V64.9678H277.488V51.929H279.729V64.9678H291.719V51.929H293.96V64.9678H298.218V67.2354H293.96V74.0383H298.218V76.306H293.96V83.1088H298.218V85.3765H293.96V94.2429C293.64 94.3031 293.316 94.3335 292.991 94.3336H291.719V85.3764H279.729V94.3336H277.488V85.3764H265.498V94.3336H264.671C264.193 94.3343 263.717 94.2679 263.257 94.1363V85.3764H259.448V83.1088H263.257V76.3059H259.448V74.0383H263.257V67.2354H259.448ZM291.718 67.2354H279.729V74.0383H291.718V67.2354ZM291.718 83.1088V76.3059H279.729V83.1088H291.718ZM265.498 83.1088H277.488V76.3059H265.498V83.1088ZM265.498 74.0383H277.488V67.2354H265.498V74.0383Z" fill="black"/>
<path d="M254.786 0C254.786 3.18036 255.405 6.32958 256.608 9.26785C257.811 12.2061 259.574 14.8759 261.797 17.1248C264.019 19.3736 266.657 21.1575 269.561 22.3746C272.465 23.5917 275.577 24.2181 278.72 24.2181C281.864 24.2181 284.976 23.5917 287.88 22.3746C290.784 21.1575 293.422 19.3736 295.644 17.1248C297.867 14.8759 299.63 12.2061 300.833 9.26785C302.036 6.32958 302.655 3.18036 302.655 0H254.786Z" fill="#6C63FF"/>
<path d="M293.874 4.29901C293.874 4.93216 294.096 5.44543 294.37 5.44543C294.643 5.44543 294.865 4.93216 294.865 4.29901C294.835 3.87058 294.66 3.46572 294.37 3.15259C294.079 3.46572 293.904 3.87058 293.874 4.29901Z" fill="#3F3D56"/>
<path d="M268.807 8.31146C268.807 8.94461 269.029 9.45788 269.303 9.45788C269.576 9.45788 269.798 8.94461 269.798 8.31146C269.768 7.88303 269.593 7.47817 269.303 7.16504C269.012 7.47817 268.837 7.88303 268.807 8.31146Z" fill="#3F3D56"/>
<path d="M287.218 6.01873C287.218 6.65188 287.44 7.16515 287.713 7.16515C287.987 7.16515 288.209 6.65188 288.209 6.01873C288.179 5.5903 288.004 5.18544 287.713 4.87231C287.423 5.18544 287.248 5.5903 287.218 6.01873Z" fill="#3F3D56"/>
<path d="M277.304 15.0468C277.304 15.68 277.526 16.1932 277.8 16.1932C278.074 16.1932 278.296 15.68 278.296 15.0468C278.266 14.6184 278.09 14.2135 277.8 13.9004C277.509 14.2135 277.334 14.6184 277.304 15.0468Z" fill="#3F3D56"/>
<path d="M287.926 13.9003C287.926 14.5335 288.148 15.0467 288.422 15.0467C288.695 15.0467 288.917 14.5335 288.917 13.9003C288.887 13.4719 288.712 13.067 288.422 12.7539C288.131 13.067 287.956 13.4719 287.926 13.9003Z" fill="#3F3D56"/>
<path d="M263.142 3.15276C263.142 3.78592 263.364 4.29919 263.638 4.29919C263.911 4.29919 264.133 3.78592 264.133 3.15276C264.103 2.72434 263.928 2.31948 263.638 2.00635C263.347 2.31948 263.172 2.72434 263.142 3.15276Z" fill="#3F3D56"/>
<path d="M272.206 17.3395C272.206 17.9727 272.428 18.4859 272.702 18.4859C272.975 18.4859 273.197 17.9727 273.197 17.3395C273.167 16.9111 272.992 16.5062 272.702 16.1931C272.411 16.5062 272.236 16.9111 272.206 17.3395Z" fill="#3F3D56"/>
<path d="M278.72 25.5794C285.423 25.5718 291.848 22.8743 296.587 18.0789C301.327 13.2835 303.992 6.78173 304 0H301.309C301.309 3.00158 300.725 5.97378 299.59 8.74688C298.455 11.52 296.791 14.0397 294.693 16.1621C292.596 18.2846 290.105 19.9682 287.365 21.1168C284.624 22.2655 281.687 22.8567 278.72 22.8567C275.754 22.8567 272.817 22.2655 270.076 21.1168C267.336 19.9682 264.845 18.2846 262.748 16.1621C260.65 14.0397 258.986 11.52 257.851 8.74688C256.716 5.97378 256.132 3.00158 256.132 0H253.441C253.449 6.78173 256.114 13.2835 260.854 18.0789C265.593 22.8743 272.018 25.5718 278.72 25.5794Z" fill="#3F3D56"/>
<path d="M220.492 8.78149H228.414V16.7978H220.492V8.78149Z" fill="#3F3D56"/>
<path d="M142.854 12.3889H206.628V13.1905H142.854V12.3889Z" fill="#3F3D56"/>
<path d="M220.492 69.1233H228.414V77.1395H220.492V69.1233Z" fill="#3F3D56"/>
<path d="M142.854 72.7305H206.628V73.5321H142.854V72.7305Z" fill="#3F3D56"/>
<path d="M220.492 129.045H228.414V137.062H220.492V129.045Z" fill="#3F3D56"/>
<path d="M142.854 132.653H206.628V133.454H142.854V132.653Z" fill="#3F3D56"/>
<path d="M53.5277 55.0494L63.6477 63.1206L85.0915 55.4948C85.0915 55.4948 92.3824 47.1967 96.5054 53.3773C97.9174 55.494 88.6688 59.4046 87.7963 59.768C85.615 60.6766 64.7194 72.2762 62.6718 70.7544C60.6241 69.2326 49.1035 61.5354 49.1035 61.5354L53.5277 55.0494Z" fill="#A0616A"/>
<path d="M18.9827 41.2808C28.574 37.6544 37.6979 35.9386 45.0953 41.2808V24.0391C45.0953 22.3042 44.7576 20.5862 44.1015 18.9834C43.4453 17.3805 42.4836 15.9241 41.2712 14.6973C40.0588 13.4706 38.6195 12.4975 37.0355 11.8335C35.4514 11.1696 33.7536 10.8279 32.039 10.8279H32.039C30.3244 10.8279 28.6266 11.1696 27.0426 11.8335C25.4585 12.4975 24.0192 13.4706 22.8068 14.6974C21.5944 15.9241 20.6327 17.3805 19.9766 18.9834C19.3204 20.5862 18.9827 22.3042 18.9827 24.0391L18.9827 41.2808Z" fill="#2F2E41"/>
<path d="M43.0828 78.9458L43.8665 84.4971C43.8665 84.4971 45.8259 90.4449 43.8665 101.548L75.4122 188.584L52.0958 195.325L40.5356 147.742L24.2729 111.461L25.8404 152.699L34.0697 196.712L9.7737 195.721L2.69382 120.251C1.54901 108.323 3.59367 96.3038 8.61379 85.4502C10.5778 81.2296 12.6896 77.9033 14.6058 77.4204C20.3542 75.9719 43.0828 78.9458 43.0828 78.9458Z" fill="#2F2E41"/>
<path d="M72.4731 187.989L80.5065 196.712C80.5065 196.712 95.9854 204.841 85.013 205.832C74.0406 206.824 70.3178 202.462 70.3178 202.462C70.3178 202.462 56.6023 201.471 56.7982 199.488C56.9942 197.505 57.9738 190.963 57.9738 190.963L72.4731 187.989Z" fill="#2F2E41"/>
<path d="M28.8774 190.092V196.238C28.8774 196.238 28.6815 198.816 28.8774 199.411C29.0734 200.005 32.0124 207.341 22.2156 205.755C12.4188 204.169 16.3376 198.023 16.3376 198.023L18.6888 189.101L28.8774 190.092Z" fill="#2F2E41"/>
<path d="M32.1593 36.1217C26.7217 36.1217 22.3136 31.6613 22.3136 26.1591C22.3136 20.6569 26.7217 16.1965 32.1593 16.1965C37.597 16.1965 42.0051 20.6569 42.0051 26.1591C42.0051 31.6613 37.597 36.1217 32.1593 36.1217Z" fill="#A0616A"/>
<path d="M25.3505 31.6607C25.3505 31.6607 26.7221 44.7459 25.3505 47.125C23.979 49.5041 39.262 44.7459 39.262 44.7459C39.262 44.7459 35.931 35.8242 37.1067 32.2555C38.2823 28.6868 25.3505 31.6607 25.3505 31.6607Z" fill="#A0616A"/>
<path d="M17.5131 69.3301L14.3781 78.0535L43.5726 81.424C43.5726 81.424 46.7075 80.8292 46.7075 78.2518C46.7075 75.6744 50.0384 66.5545 50.0384 66.5545C50.0384 66.5545 58.1963 59.8639 62.115 58.0796C63.5355 57.4332 61.4106 57.7002 60.2154 54.9562C59.8568 54.1315 59.4277 53.2611 58.9594 52.3789C58.5774 51.6552 58.1659 50.9216 57.7446 50.198C57.2332 49.3157 56.7062 48.4473 56.1947 47.6206C54.6469 45.1206 53.2342 43.019 52.7815 42.1685C51.41 39.5911 38.5155 39.3611 38.5155 39.3611C34.828 41.7085 24.1749 42.1685 24.1749 42.1685C24.1749 42.1685 16.847 45.2712 13.7943 47.6206C13.5729 47.7891 17.5131 69.3301 17.5131 69.3301Z" fill="#E6E6E6"/>
<path d="M23.8511 14.1992V13.9627L24.129 13.9783C25.7076 12.762 27.5391 11.9254 29.4848 11.5319C31.4305 11.1385 33.4391 11.1987 35.3584 11.7078C33.5186 12.1997 31.8079 13.0941 30.3468 14.3278L39.7843 14.8583L43.7676 23.8151H41.0718L38.8991 19.7845V23.8151H29.7818L29.1622 20.6802L27.441 23.8151H25.6497C25.6386 24.0386 25.6215 24.2605 25.6215 24.4868L27.3918 41.7286L18.9827 38.1459V24.4868C18.9812 22.5126 19.4178 20.5633 20.2605 18.7827C21.1031 17.0021 22.3302 15.4358 23.8511 14.1992Z" fill="#2F2E41"/>
<path d="M10.6554 59.8137L11.2433 75.4763L12.8107 105.81C12.8107 105.81 10.6554 118.895 16.1417 118.697C21.6279 118.499 17.5132 103.233 17.5132 103.233L19.0807 79.2432L17.5132 62.3911L10.6554 59.8137Z" fill="#A0616A"/>
<path d="M9.08789 68.3388C9.08789 70.1232 18.9826 69.6275 18.9826 69.6275L24.1749 42.1685C24.1749 42.1685 16.8469 45.2712 13.7943 47.6206C13.0758 48.3747 12.4882 49.2461 12.0563 50.198C11.8231 50.8344 11.6017 51.5719 11.3921 52.3789C11.1844 53.1798 10.9904 54.0502 10.8082 54.9562C9.95303 59.3754 9.37843 63.8454 9.08789 68.3388Z" fill="#E6E6E6"/>
<path d="M278.987 132.037L293.985 130.466C293.869 129.66 293.958 128.838 294.242 128.076C294.526 127.314 294.996 126.638 295.608 126.109C296.221 125.581 296.955 125.219 297.744 125.056C298.532 124.893 299.349 124.935 300.117 125.177C300.885 125.42 301.579 125.856 302.136 126.444C302.692 127.032 303.092 127.754 303.299 128.541C303.505 129.328 303.511 130.155 303.316 130.945C303.121 131.735 302.731 132.461 302.183 133.058C302.74 133.666 303.132 134.41 303.321 135.217C303.511 136.024 303.492 136.867 303.265 137.664C303.039 138.461 302.613 139.186 302.029 139.767C301.444 140.349 300.722 140.769 299.93 140.985C299.139 141.202 298.306 141.208 297.512 141.003C296.717 140.798 295.989 140.39 295.396 139.817C294.803 139.244 294.367 138.525 294.129 137.732C293.891 136.938 293.859 136.096 294.037 135.286L278.987 133.886V132.037Z" fill="#CCCCCC"/>
<path d="M263.736 142.467C257.84 143.934 251.901 139.703 251.593 133.567C251.585 133.397 251.58 133.226 251.58 133.054C251.58 132.881 251.585 132.71 251.593 132.54C251.901 126.404 257.84 122.173 263.736 123.64L283.737 128.617C284.314 128.616 284.884 128.73 285.417 128.953C285.949 129.176 286.433 129.503 286.841 129.915C287.248 130.327 287.572 130.816 287.792 131.355C288.013 131.893 288.127 132.471 288.127 133.054C288.127 133.637 288.013 134.214 287.792 134.753C287.572 135.291 287.248 135.781 286.841 136.193C286.433 136.605 285.949 136.931 285.417 137.154C284.884 137.377 284.314 137.491 283.737 137.491L263.736 142.467Z" fill="#6C63FF"/>
</g>
<defs>
<clipPath id="clip0_144_193">
<rect width="304" height="208" fill="white" transform="matrix(-1 0 0 1 304 0)"/>
</clipPath>
</defs>
</svg>
