<svg width="258" height="218" viewBox="0 0 258 218" fill="none" xmlns="http://www.w3.org/2000/svg">
<g clip-path="url(#clip0_144_138)">
<path d="M222.346 20.0452L6.16412 78.3959L11.8901 96.6023L228.072 38.2517L222.346 20.0452Z" fill="#3F3D56"/>
<path d="M31.9923 162.025L0.128883 60.7122C-0.107344 59.9611 -0.0117972 59.1538 0.394489 58.4679C0.800776 57.782 1.48452 57.2737 2.29533 57.0549L213.236 0.11872C214.047 -0.0993859 214.918 -0.0105712 215.658 0.365679C216.398 0.741929 216.947 1.37487 217.184 2.12557L245.412 91.8814L244.539 92.1172L216.31 2.36138C216.141 1.82539 215.749 1.37354 215.22 1.10483C214.692 0.836124 214.07 0.772457 213.49 0.92779L2.54982 57.864C1.97067 58.0203 1.48228 58.3834 1.19207 58.8733C0.901869 59.3632 0.833622 59.9399 1.00235 60.4764L32.8658 161.789L31.9923 162.025Z" fill="#3F3D56"/>
<path d="M198.724 92.2983C198.084 92.2977 197.462 92.1051 196.95 91.7493C196.438 91.3936 196.064 90.8938 195.884 90.3248L190.54 73.3321C190.321 72.6347 190.41 71.8855 190.788 71.2488C191.165 70.6122 191.799 70.1401 192.551 69.9361L210.894 64.9852C211.647 64.7828 212.456 64.8654 213.143 65.2149C213.83 65.5643 214.34 66.152 214.56 66.849L219.904 83.8417C220.123 84.5391 220.033 85.2883 219.656 85.925C219.279 86.5616 218.645 87.0337 217.893 87.2377L199.55 92.1886C199.282 92.2613 199.004 92.2982 198.724 92.2983Z" fill="#6C63FF"/>
<path d="M31.4995 61.0253C31.4446 60.8507 31.3792 60.6791 31.3038 60.5112C30.791 59.358 29.8362 58.4211 28.6229 57.8805C27.4097 57.3399 26.0236 57.2337 24.731 57.5823C23.4384 57.931 22.3304 58.7098 21.6201 59.7693C20.9097 60.8287 20.647 62.094 20.8824 63.322C20.9155 63.5012 20.9596 63.6784 21.0144 63.853C21.3466 64.9034 22.0371 65.8258 22.9826 66.4822C23.9281 67.1386 25.0776 67.4935 26.2591 67.494C26.775 67.495 27.2883 67.4269 27.7831 67.2917C29.1718 66.9158 30.343 66.045 31.0397 64.8703C31.7363 63.6955 31.9017 62.3128 31.4995 61.0253ZM27.5283 66.4826C26.3702 66.794 25.126 66.6672 24.0686 66.13C23.0112 65.5928 22.2269 64.6891 21.8877 63.617C21.8345 63.4424 21.7919 63.2651 21.7602 63.086C21.5896 62.0743 21.8226 61.0396 22.4157 60.1754C23.0088 59.3113 23.9214 58.6768 24.9827 58.3907C26.0441 58.1046 27.1816 58.1865 28.1826 58.621C29.1835 59.0554 29.9794 59.8128 30.4213 60.7514C30.5037 60.9162 30.5722 61.0867 30.6261 61.2613C30.9618 62.3342 30.8241 63.4867 30.2433 64.4657C29.6625 65.4447 28.686 66.1701 27.5283 66.4826V66.4826Z" fill="#6C63FF"/>
<path d="M18.111 64.6368C17.8199 63.7106 17.8478 62.7234 18.191 61.8127C18.5341 60.9019 19.1753 60.113 20.0253 59.5558C19.229 59.5198 18.4349 59.6607 17.7092 59.9666C16.9835 60.2725 16.3473 60.7347 15.8534 61.3145C15.3596 61.8944 15.0225 62.5752 14.8701 63.3002C14.7178 64.0252 14.7547 64.7734 14.9777 65.4825C15.2007 66.1916 15.6034 66.8411 16.1523 67.3768C16.7011 67.9126 17.3802 68.3191 18.133 68.5624C18.8857 68.8058 19.6903 68.879 20.4798 68.776C21.2693 68.673 22.0208 68.3967 22.6717 67.9701C21.6316 67.923 20.6333 67.5766 19.8159 66.9792C18.9984 66.3817 18.4024 65.5629 18.111 64.6368Z" fill="#6C63FF"/>
<path d="M159.519 85.5219C159.422 85.1995 159.258 84.8978 159.035 84.6343C158.812 84.3707 158.535 84.1505 158.221 83.9861C157.906 83.8217 157.559 83.7164 157.201 83.6762C156.842 83.6361 156.478 83.6618 156.13 83.752L125.93 91.5776L122.678 92.4204H143.102L146.355 91.5776L157.613 88.6614C158.315 88.4788 158.91 88.0456 159.267 87.457C159.624 86.8683 159.715 86.1724 159.519 85.5219Z" fill="#CCCCCC"/>
<path d="M138.153 79.677C137.956 79.0266 137.489 78.4752 136.853 78.1441C136.218 77.813 135.466 77.7292 134.764 77.9113L89.448 89.6518C88.8147 89.818 88.2664 90.1883 87.9019 90.696C87.5374 91.2036 87.3807 91.8152 87.46 92.4205H99.1916L102.448 91.5777L136.247 82.8207C136.949 82.6375 137.545 82.2035 137.902 81.6141C138.259 81.0247 138.35 80.328 138.153 79.677Z" fill="#CCCCCC"/>
<path d="M254.816 91.5767H35.1038C34.2596 91.5775 33.4502 91.8886 32.8533 92.4416C32.2563 92.9946 31.9205 93.7445 31.9196 94.5265V215.05C31.9205 215.832 32.2563 216.582 32.8532 217.135C33.4502 217.688 34.2596 217.999 35.1038 218H254.816C255.66 217.999 256.469 217.688 257.066 217.135C257.663 216.582 257.999 215.832 258 215.05V94.5265C257.999 93.7445 257.663 92.9947 257.066 92.4417C256.469 91.8887 255.66 91.5776 254.816 91.5767ZM257.09 215.05C257.09 215.609 256.85 216.145 256.424 216.54C255.997 216.935 255.419 217.157 254.816 217.157H35.1038C34.5007 217.157 33.9223 216.935 33.4958 216.54C33.0693 216.145 32.8296 215.609 32.8294 215.05V94.5265C32.8296 93.9678 33.0693 93.432 33.4958 93.0369C33.9223 92.6418 34.5007 92.4197 35.1038 92.4195H254.816C255.419 92.4197 255.997 92.6418 256.424 93.0369C256.85 93.432 257.09 93.9678 257.09 94.5265V215.05Z" fill="#3F3D56"/>
<path d="M56.482 108.013C55.4024 108.013 54.347 107.716 53.4493 107.16C52.5517 106.605 51.852 105.815 51.4388 104.891C51.0257 103.967 50.9176 102.95 51.1282 101.969C51.3388 100.988 51.8587 100.087 52.6221 99.38C53.3856 98.6727 54.3582 98.1911 55.4171 97.996C56.476 97.8009 57.5735 97.901 58.571 98.2837C59.5684 98.6665 60.4209 99.3146 61.0207 100.146C61.6205 100.978 61.9407 101.956 61.9407 102.956C61.939 104.296 61.3634 105.582 60.34 106.53C59.3167 107.478 57.9292 108.011 56.482 108.013ZM56.482 98.7416C55.5823 98.7416 54.7028 98.9888 53.9548 99.4518C53.2067 99.9149 52.6237 100.573 52.2794 101.343C51.9351 102.113 51.845 102.96 52.0205 103.778C52.196 104.595 52.6293 105.346 53.2655 105.936C53.9016 106.525 54.7122 106.926 55.5946 107.089C56.477 107.251 57.3916 107.168 58.2228 106.849C59.054 106.53 59.7644 105.99 60.2643 105.297C60.7641 104.604 61.0309 103.789 61.0309 102.956C61.0295 101.838 60.5499 100.767 59.6971 99.9773C58.8443 99.1873 57.688 98.7429 56.482 98.7416Z" fill="#6C63FF"/>
<path d="M47.9973 102.956C47.9975 101.991 48.3224 101.051 48.9268 100.265C49.5313 99.4796 50.3851 98.8883 51.3694 98.5736C50.6157 98.3328 49.8108 98.2622 49.0217 98.3679C48.2327 98.4735 47.4823 98.7523 46.833 99.1811C46.1838 99.6098 45.6546 100.176 45.2894 100.833C44.9243 101.489 44.7338 102.217 44.7338 102.956C44.7338 103.694 44.9243 104.422 45.2894 105.079C45.6546 105.735 46.1838 106.302 46.833 106.73C47.4823 107.159 48.2327 107.438 49.0217 107.544C49.8108 107.649 50.6157 107.579 51.3694 107.338C50.3851 107.023 49.5313 106.432 48.9268 105.646C48.3224 104.861 47.9975 103.92 47.9973 102.956Z" fill="#6C63FF"/>
<path d="M78.6095 162.703C77.5241 162.701 76.4835 162.301 75.716 161.59C74.9485 160.879 74.5168 159.915 74.5155 158.91V147.532C74.5155 146.526 74.9469 145.561 75.7146 144.85C76.4824 144.139 77.5237 143.739 78.6095 143.739C79.6953 143.739 80.7367 144.139 81.5044 144.85C82.2722 145.561 82.7035 146.526 82.7035 147.532V158.91C82.7023 159.915 82.2706 160.879 81.5031 161.59C80.7356 162.301 79.695 162.701 78.6095 162.703Z" fill="#6C63FF"/>
<path d="M89.5269 162.703C88.4415 162.701 87.4009 162.301 86.6334 161.59C85.8659 160.879 85.4341 159.915 85.4329 158.91V147.532C85.4329 146.526 85.8642 145.561 86.632 144.85C87.3998 144.139 88.4411 143.739 89.5269 143.739C90.6127 143.739 91.654 144.139 92.4218 144.85C93.1896 145.561 93.6209 146.526 93.6209 147.532V158.91C93.6196 159.915 93.1879 160.879 92.4204 161.59C91.6529 162.301 90.6123 162.701 89.5269 162.703Z" fill="#6C63FF"/>
<path d="M100.444 162.703C99.3588 162.701 98.3182 162.301 97.5507 161.59C96.7832 160.879 96.3515 159.915 96.3502 158.91V147.532C96.3502 146.526 96.7816 145.561 97.5493 144.85C98.3171 144.139 99.3584 143.739 100.444 143.739C101.53 143.739 102.571 144.139 103.339 144.85C104.107 145.561 104.538 146.526 104.538 147.532V158.91C104.537 159.915 104.105 160.879 103.338 161.59C102.57 162.301 101.53 162.701 100.444 162.703Z" fill="#6C63FF"/>
<path d="M117.275 162.703C116.19 162.701 115.149 162.301 114.382 161.59C113.614 160.879 113.182 159.915 113.181 158.91V147.532C113.181 146.526 113.612 145.561 114.38 144.85C115.148 144.139 116.189 143.739 117.275 143.739C118.361 143.739 119.402 144.139 120.17 144.85C120.938 145.561 121.369 146.526 121.369 147.532V158.91C121.368 159.915 120.936 160.879 120.169 161.59C119.401 162.301 118.361 162.701 117.275 162.703Z" fill="#6C63FF"/>
<path d="M128.193 162.703C127.107 162.701 126.067 162.301 125.299 161.59C124.531 160.879 124.1 159.915 124.098 158.91V147.532C124.098 146.526 124.53 145.561 125.298 144.85C126.065 144.139 127.107 143.739 128.193 143.739C129.278 143.739 130.32 144.139 131.087 144.85C131.855 145.561 132.287 146.526 132.287 147.532V158.91C132.285 159.915 131.854 160.879 131.086 161.59C130.319 162.301 129.278 162.701 128.193 162.703Z" fill="#6C63FF"/>
<path d="M139.11 162.703C138.024 162.701 136.984 162.301 136.216 161.59C135.449 160.879 135.017 159.915 135.016 158.91V147.532C135.016 146.526 135.447 145.561 136.215 144.85C136.983 144.139 138.024 143.739 139.11 143.739C140.196 143.739 141.237 144.139 142.005 144.85C142.773 145.561 143.204 146.526 143.204 147.532V158.91C143.203 159.915 142.771 160.879 142.003 161.59C141.236 162.301 140.195 162.701 139.11 162.703Z" fill="#6C63FF"/>
<path d="M155.941 162.703C154.855 162.701 153.815 162.301 153.047 161.59C152.28 160.879 151.848 159.915 151.847 158.91V147.532C151.847 146.526 152.278 145.561 153.046 144.85C153.814 144.139 154.855 143.739 155.941 143.739C157.027 143.739 158.068 144.139 158.836 144.85C159.603 145.561 160.035 146.526 160.035 147.532V158.91C160.034 159.915 159.602 160.879 158.834 161.59C158.067 162.301 157.026 162.701 155.941 162.703Z" fill="#6C63FF"/>
<path d="M166.858 162.703C165.773 162.701 164.732 162.301 163.965 161.59C163.197 160.879 162.765 159.915 162.764 158.91V147.532C162.764 146.526 163.195 145.561 163.963 144.85C164.731 144.139 165.772 143.739 166.858 143.739C167.944 143.739 168.985 144.139 169.753 144.85C170.521 145.561 170.952 146.526 170.952 147.532V158.91C170.951 159.915 170.519 160.879 169.752 161.59C168.984 162.301 167.944 162.701 166.858 162.703Z" fill="#6C63FF"/>
<path d="M177.775 162.703C176.69 162.701 175.649 162.301 174.882 161.59C174.114 160.879 173.683 159.915 173.681 158.91V147.532C173.681 146.526 174.113 145.561 174.881 144.85C175.648 144.139 176.69 143.739 177.775 143.739C178.861 143.739 179.903 144.139 180.67 144.85C181.438 145.561 181.869 146.526 181.869 147.532V158.91C181.868 159.915 181.437 160.879 180.669 161.59C179.901 162.301 178.861 162.701 177.775 162.703Z" fill="#6C63FF"/>
<path d="M194.606 162.703C193.521 162.701 192.48 162.301 191.713 161.59C190.945 160.879 190.514 159.915 190.512 158.91V147.532C190.512 146.526 190.944 145.561 191.712 144.85C192.479 144.139 193.521 143.739 194.606 143.739C195.692 143.739 196.734 144.139 197.501 144.85C198.269 145.561 198.7 146.526 198.7 147.532V158.91C198.699 159.915 198.267 160.879 197.5 161.59C196.732 162.301 195.692 162.701 194.606 162.703Z" fill="#6C63FF"/>
<path d="M205.524 162.703C204.438 162.701 203.398 162.301 202.63 161.59C201.863 160.879 201.431 159.915 201.43 158.91V147.532C201.43 146.526 201.861 145.561 202.629 144.85C203.397 144.139 204.438 143.739 205.524 143.739C206.61 143.739 207.651 144.139 208.419 144.85C209.186 145.561 209.618 146.526 209.618 147.532V158.91C209.617 159.915 209.185 160.879 208.417 161.59C207.65 162.301 206.609 162.701 205.524 162.703Z" fill="#6C63FF"/>
<path d="M216.441 162.703C215.356 162.701 214.315 162.301 213.548 161.59C212.78 160.879 212.348 159.915 212.347 158.91V147.532C212.347 146.526 212.778 145.561 213.546 144.85C214.314 144.139 215.355 143.739 216.441 143.739C217.527 143.739 218.568 144.139 219.336 144.85C220.104 145.561 220.535 146.526 220.535 147.532V158.91C220.534 159.915 220.102 160.879 219.335 161.59C218.567 162.301 217.527 162.701 216.441 162.703Z" fill="#6C63FF"/>
<path d="M106.366 204.914H47.4849C46.7553 204.914 46.0556 204.645 45.5398 204.168C45.0239 203.69 44.734 203.041 44.734 202.366C44.734 201.69 45.0239 201.041 45.5398 200.564C46.0556 200.086 46.7553 199.817 47.4849 199.817H106.366C107.096 199.817 107.795 200.086 108.311 200.564C108.827 201.041 109.117 201.69 109.117 202.366C109.117 203.041 108.827 203.69 108.311 204.168C107.795 204.645 107.096 204.914 106.366 204.914Z" fill="#E6E6E6"/>
<path d="M87.4881 193.957H66.3629C65.6333 193.957 64.9336 193.689 64.4177 193.211C63.9018 192.733 63.612 192.085 63.612 191.409C63.612 190.733 63.9018 190.085 64.4177 189.607C64.9336 189.129 65.6333 188.86 66.3629 188.86H87.4881C88.2177 188.86 88.9174 189.129 89.4333 189.607C89.9491 190.085 90.2389 190.733 90.2389 191.409C90.2389 192.085 89.9491 192.733 89.4333 193.211C88.9174 193.689 88.2177 193.957 87.4881 193.957Z" fill="#E6E6E6"/>
<path d="M256.926 116.769H32.6656V117.612H256.926V116.769Z" fill="#3F3D56"/>
</g>
<defs>
<clipPath id="clip0_144_138">
<rect width="258" height="218" fill="white"/>
</clipPath>
</defs>
</svg>
